# xmcd
#
# Track frame offsets:
#	150
#	16925
#	35015
#	52125
#	71580
#	90250
#	107400
#	127482
#	147400
#	164355
#	185320
#	203017
#	221180
#
# Disc length: 3161 seconds
#
# Revision: 4
# Processed by: cddbd v1.5.2PL0 Copyright (c) Steve Scherf et al.
# Submitted via: EasyCDDAExtractor 15.3.0.1
#
DISCID=c00c570d
DTITLE=Pilar Montenegro - Desahogo
DYEAR=2001
DGENRE=Latin
TTITLE0=Cuando Estamos Juntos
TTITLE1=Alguien Que Una Vez Ame
TTITLE2=La Puerta Del Amor
TTITLE3=Algo Especial
TTITLE4=Yo Se Que Te Amo
TTITLE5=Quitame Ese Hombre
TTITLE6=Desahogo
TTITLE7=Y Volvere
TTITLE8=Los Ojos No Mienten
TTITLE9=Bella
TTITLE10=Alguien Que Una Vez Ame (Version Ranchera) (Bonus Track)
TTITLE11=Quitame Ese Hombre (Version Norteña) (Bonus Track)
TTITLE12=Cuando Estamos Juntos (Club Mix Radio Edit) (Bonus Track)
EXTD=
EXTT0=
EXTT1=
EXTT2=
EXTT3=
EXTT4=
EXTT5=
EXTT6=
EXTT7=
EXTT8=
EXTT9=
EXTT10=
EXTT11=
EXTT12=
PLAYORDER=
